<svg id="Layer_1" data-name="Layer 1" xmlns="http://www.w3.org/2000/svg" viewBox="0 0 288.91 381.88"><defs><style>.cls-1{fill:#4cc6e2;}.cls-2{fill:#47a2da;}.cls-3{fill:#3da6cd;}.cls-4{fill:#0b6c9c;}.cls-5{fill:none;stroke:#000;stroke-miterlimit:10;}</style></defs><title>LOGO</title><polyline class="cls-1" points="144.46 0.24 144.46 77.62 144.46 116.77 183.62 210.45 238.78 342.35 252.37 318.81 288.34 256.51 262.9 212.45 260.19 207.75 252.37 194.21 218.15 131.5 188.71 79.06"/><path class="cls-2" d="M219,340.58l1.84,1.51" transform="translate(-74.52 -18.6)"/><polygon class="cls-3" points="100.87 77.87 70.67 131.66 36.55 194.21 29.42 206.55 29.42 206.55 0.57 256.51 36.55 318.81 54.87 350.56 109.28 208.57 144.46 116.77 144.46 77.62 144.46 0.24 100.87 77.87"/><path class="cls-4" d="M220.82,342.09l70.1,57.62,19.82-34.33L313.3,361,258.15,229,219,135.36l-37.85,90.91L124.66,361,147,399.71,219,340.58" transform="translate(-74.52 -18.6)"/><polyline class="cls-5" points="144.46 0.24 0.57 256.51 72.52 381.11 144.46 321.98 216.4 381.11 288.34 256.51 144.46 0.24"/><path class="cls-5" d="M219,136" transform="translate(-74.52 -18.6)"/><polyline class="cls-5" points="144.46 0.24 144.46 117.39 50.14 342.35"/><line class="cls-5" x1="238.78" y1="342.35" x2="144.46" y2="117.39"/></svg>