<svg width="90" height="91" viewBox="0 0 90 91" fill="none" xmlns="http://www.w3.org/2000/svg">
<g filter="url(#filter0_d)">
<path d="M81.1607 46.2321C79.5179 56.6786 76.3214 59.7321 70.6607 66.75C65 72.6964 56.8572 82.625 45.3214 82.0714C34.875 80.4286 31.8214 77.2321 24.8036 71.5714C18.8572 65.9107 8.92859 57.7679 9.48216 46.2321C11.125 35.7857 14.3214 32.7322 19.9822 25.7143C25.6429 19.7679 33.7857 9.83929 45.3214 10.3929C55.7679 12.0357 58.8214 15.2322 65.8393 20.8929C71.7857 26.5714 81.6964 34.6964 81.1607 46.2321Z" fill="#3765AF"/>
<path d="M59.3929 31.5C60.6071 33.1786 61.1964 35.1964 61.1964 37.5357C61.1964 39.9464 60.5893 41.8928 59.375 43.3571C58.6964 44.1786 57.6964 44.9286 56.3572 45.6071C58.375 46.3393 59.8929 47.5 60.9286 49.0893C61.9464 50.6786 62.4643 52.6071 62.4643 54.875C62.4643 57.2143 61.875 59.3214 60.7143 61.1786C59.9643 62.4107 59.0357 63.4464 57.9107 64.2857C56.6429 65.25 55.1607 65.9107 53.4464 66.2678C51.7321 66.625 49.875 66.8036 47.8572 66.8036H30.0536V27.3036H49.1429C53.9643 27.375 57.375 28.7678 59.3929 31.5ZM37.9286 34.1607V42.875H47.5357C49.25 42.875 50.6429 42.5536 51.7143 41.8928C52.7857 41.2321 53.3214 40.0893 53.3214 38.4286C53.3214 36.5893 52.6072 35.375 51.1964 34.7857C49.9822 34.375 48.4107 34.1607 46.5357 34.1607H37.9286ZM37.9286 49.4107V59.9464H47.5179C49.2322 59.9464 50.5714 59.7143 51.5179 59.25C53.25 58.3928 54.1072 56.75 54.1072 54.3214C54.1072 52.2679 53.2679 50.8571 51.5893 50.0893C50.6607 49.6607 49.3393 49.4286 47.6429 49.4107H37.9286Z" fill="white"/>
</g>
<defs>
<filter id="filter0_d" x="-4" y="0" width="98" height="98" filterUnits="userSpaceOnUse" color-interpolation-filters="sRGB">
<feFlood flood-opacity="0" result="BackgroundImageFix"/>
<feColorMatrix in="SourceAlpha" type="matrix" values="0 0 0 0 0 0 0 0 0 0 0 0 0 0 0 0 0 0 127 0"/>
<feOffset dy="4"/>
<feGaussianBlur stdDeviation="2"/>
<feColorMatrix type="matrix" values="0 0 0 0 0 0 0 0 0 0 0 0 0 0 0 0 0 0 0.25 0"/>
<feBlend mode="normal" in2="BackgroundImageFix" result="effect1_dropShadow"/>
<feBlend mode="normal" in="SourceGraphic" in2="effect1_dropShadow" result="shape"/>
</filter>
</defs>
</svg>
