<svg width="92" height="92" viewBox="0 0 92 92" fill="none" xmlns="http://www.w3.org/2000/svg">
<path d="M81.4472 21.2458L61.6561 1.52995C61.3899 1.2606 61.0171 1.099 60.6266 1.099H24.1152C18.595 1.099 14.122 5.87534 14.122 11.765V51.1248H9.25854V77.8077H14.122V80.2138C14.122 86.0855 18.6127 90.8798 24.1152 90.8798H71.9333C77.4535 90.8798 81.9265 86.1034 81.9265 80.2138V22.413C81.9265 21.982 81.7667 21.5511 81.4472 21.2458ZM60.1296 4.40293L77.347 21.569H67.9751C63.6441 21.569 60.1296 18.0676 60.1296 13.776V4.40293ZM78.909 80.2138C78.909 84.3258 75.785 87.6656 71.9333 87.6656H24.1152C20.2635 87.6656 17.1395 84.3258 17.1395 80.2138V77.8077H50.3317C56.8104 77.8077 62.0466 71.8283 62.0466 64.4663C62.0466 57.1042 56.7927 51.1248 50.3317 51.1248H17.1395V11.765C17.1395 7.65299 20.2635 4.31315 24.1152 4.31315H57.1122V13.776C57.1122 19.8452 61.9756 24.7832 67.9751 24.7832H78.909V80.2138ZM21.9852 68.3987C22.4999 69.0989 23.2099 69.4581 24.1152 69.4581C25.0027 69.4581 25.6772 69.2246 26.1209 68.7578C26.5824 68.2909 26.8132 67.6086 26.8132 66.7287H28.8899L28.9076 66.7826C28.9254 68.0934 28.4994 69.1708 27.6296 69.9788C26.7599 70.7868 25.5884 71.1998 24.0974 71.1998C22.5887 71.1998 21.3639 70.6791 20.441 69.6556C19.5002 68.6321 19.0387 67.3213 19.0387 65.7052V63.2273C19.0387 61.6292 19.5002 60.3184 20.4232 59.2769C21.3462 58.2355 22.5532 57.7327 24.0442 57.7327C25.5707 57.7327 26.7599 58.1277 27.6474 58.9178C28.5171 59.7079 28.9431 60.7852 28.9254 62.1499L28.9076 62.2038H26.8132C26.8132 61.3239 26.5824 60.6596 26.1032 60.1927C25.6417 59.7258 24.9494 59.4924 24.0442 59.4924C23.1744 59.4924 22.4644 59.8515 21.9674 60.5518C21.4527 61.2521 21.2042 62.1499 21.2042 63.2093V65.7232C21.2042 66.8006 21.4527 67.6984 21.9852 68.3987ZM37.7826 66.3157C37.3921 65.9746 36.7176 65.6514 35.7591 65.382C34.3746 64.987 33.2918 64.4842 32.5464 63.8557C31.7831 63.2273 31.4104 62.4013 31.4104 61.3778C31.4104 60.3184 31.8186 59.4565 32.6529 58.7742C33.4871 58.0918 34.5521 57.7507 35.8478 57.7507C37.2501 57.7507 38.3683 58.1277 39.2025 58.8819C40.0368 59.6361 40.445 60.5698 40.4095 61.6831L40.3918 61.7369H38.3151C38.3151 61.0546 38.0843 60.4979 37.6406 60.085C37.1791 59.672 36.5756 59.4744 35.8301 59.4744C35.1023 59.4744 34.5343 59.654 34.1438 59.9952C33.7533 60.3363 33.5581 60.7852 33.5581 61.3419C33.5581 61.8447 33.7711 62.2576 34.2148 62.5809C34.6408 62.9041 35.3686 63.2093 36.3626 63.5146C37.7116 63.8917 38.7588 64.4124 39.4688 65.0768C40.1788 65.7411 40.5338 66.5851 40.5338 67.6086C40.5338 68.686 40.1078 69.5658 39.2735 70.2122C38.4393 70.8586 37.3211 71.1819 35.9543 71.1819C34.6408 71.1819 33.4871 70.8227 32.5109 70.1224C31.5346 69.4221 31.0554 68.4166 31.0909 67.1238L31.1086 67.0699H33.1676C33.1676 67.86 33.4338 68.4525 33.9663 68.8476C34.4988 69.2426 35.1556 69.4401 35.9188 69.4401C36.6821 69.4401 37.2856 69.2785 37.6938 68.9553C38.1198 68.6321 38.3328 68.1832 38.3328 67.6265C38.3506 67.1058 38.1553 66.6569 37.7826 66.3157ZM49.5152 66.3157C49.1247 65.9746 48.4502 65.6514 47.4917 65.382C46.1072 64.987 45.0245 64.4842 44.279 63.8557C43.5158 63.2273 43.143 62.4013 43.143 61.3778C43.143 60.3184 43.5513 59.4565 44.3855 58.7742C45.2197 58.0918 46.2847 57.7507 47.5805 57.7507C48.9827 57.7507 50.101 58.1277 50.9352 58.8819C51.7694 59.6361 52.1777 60.5698 52.1422 61.6831L52.1244 61.7369H50.0477C50.0477 61.0546 49.817 60.4979 49.3732 60.085C48.9117 59.672 48.3082 59.4744 47.5627 59.4744C46.835 59.4744 46.267 59.654 45.8765 59.9952C45.486 60.3363 45.2907 60.7852 45.2907 61.3419C45.2907 61.8447 45.5037 62.2576 45.9475 62.5809C46.3735 62.9041 47.1012 63.2093 48.0952 63.5146C49.4442 63.8917 50.4915 64.4124 51.2015 65.0768C51.9114 65.7411 52.2664 66.5851 52.2664 67.6086C52.2664 68.686 51.8404 69.5658 51.0062 70.2122C50.172 70.8586 49.0537 71.1819 47.687 71.1819C46.3735 71.1819 45.2197 70.8227 44.2435 70.1224C43.2673 69.4221 42.788 68.4166 42.8235 67.1238L42.8413 67.0699H44.918C44.918 67.86 45.1843 68.4525 45.7167 68.8476C46.2492 69.2426 46.906 69.4401 47.6692 69.4401C48.4325 69.4401 49.036 69.2785 49.4442 68.9553C49.8702 68.6321 50.0832 68.1832 50.0832 67.6265C50.0832 67.1058 49.888 66.6569 49.5152 66.3157Z" fill="#2E2E2E"/>
</svg>
