<svg width="90" height="90" viewBox="0 0 90 90" fill="none" xmlns="http://www.w3.org/2000/svg">
<path fill-rule="evenodd" clip-rule="evenodd" d="M16.3586 20.5505L21.5716 79.0211L44.9648 85.5152L68.4226 79.0118L73.6414 20.5505H16.3586Z" fill="#E44D26"/>
<path fill-rule="evenodd" clip-rule="evenodd" d="M44.9999 32.5024H27.0178L27.1896 34.4263L28.9521 54.188H44.9999V47.017H35.5105L34.855 39.6738H44.9999V32.5024ZM36.9818 63.4932L36.4712 57.774H29.2724L30.2772 69.0338L44.9668 73.1116L44.9999 73.1024V65.6414L44.9684 65.6498L36.9818 63.4932Z" fill="#EBEBEB"/>
<path fill-rule="evenodd" clip-rule="evenodd" d="M45 25.3312V80.5444L63.9548 75.2894L68.4146 25.3312H45Z" fill="#F16529"/>
<path fill-rule="evenodd" clip-rule="evenodd" d="M44.9751 54.1882H53.8056L52.9731 63.4888L44.9751 65.6476V73.1081L59.6764 69.0336L59.7843 67.8221L61.4695 48.9427L61.6444 47.017H44.9751V54.1882ZM44.9751 32.5024V39.6738H62.2969L62.4407 38.0618L62.7675 34.4263L62.9389 32.5024H44.9751Z" fill="white"/>
<path fill-rule="evenodd" clip-rule="evenodd" d="M28.6663 8.26117H25.3326V4.66064H21.6885V15.564H25.3328V11.9129H28.6663V15.564H32.3106V4.66064H28.6661V8.26117H28.6663ZM33.8949 8.27629H37.1033V15.564H40.7477V8.27629H43.9575V4.66064H33.8949V8.27629ZM51.6921 8.4918L49.3543 4.66064H45.5545V15.564H49.1202V10.1596L51.6291 14.0365H51.6919L54.199 10.1596V15.564H57.8282V4.66064H54.0268L51.6921 8.4918ZM63.2876 11.96V4.66064H59.6423V15.564H68.4127V11.96H63.2876Z" fill="black"/>
</svg>
