<svg width="90" height="90" viewBox="0 0 90 90" fill="none" xmlns="http://www.w3.org/2000/svg">
<path fill-rule="evenodd" clip-rule="evenodd" d="M45 90C69.8528 90 90 69.8528 90 45C90 20.1472 69.8528 0 45 0C20.1472 0 0 20.1472 0 45C0 69.8528 20.1472 90 45 90ZM45 84.6C66.8705 84.6 84.6 66.8705 84.6 45C84.6 23.1295 66.8705 5.4 45 5.4C23.1295 5.4 5.4 23.1295 5.4 45C5.4 66.8705 23.1295 84.6 45 84.6ZM40.276 25.4267C38.4364 28.6524 38.2074 32.6274 39.2692 36.1684C40.2825 39.5828 42.4135 42.5936 45.1021 44.7971C45.1592 44.8448 45.2175 44.8913 45.2757 44.939C45.5284 45.1391 45.7843 45.3368 46.0476 45.5251C46.1697 45.6112 46.2941 45.6961 46.4184 45.7798C46.4767 45.8194 46.5327 45.8612 46.591 45.8996C46.7798 46.024 46.9702 46.145 47.1635 46.2624C47.201 46.2857 47.2397 46.3066 47.2766 46.3287C47.4324 46.4229 47.5903 46.5159 47.7494 46.6055C47.8211 46.6439 47.8934 46.6823 47.9651 46.7206C48.0889 46.7869 48.2127 46.8544 48.3387 46.9183C48.5835 47.0439 48.8316 47.1637 49.0837 47.2777C49.1375 47.3033 49.193 47.3253 49.2478 47.3498C49.4489 47.4381 49.6517 47.523 49.8567 47.6044C49.9408 47.6382 50.0265 47.6707 50.1122 47.7033C50.2993 47.7742 50.488 47.8417 50.6779 47.9056C50.7591 47.9336 50.8393 47.9614 50.921 47.987C51.1882 48.0743 51.4571 48.1557 51.7299 48.2301C57.8721 49.8849 63.6278 47.765 66.6 43.3215C66.6 43.3215 63.3029 54.7354 49.0211 52.2794C48.7438 52.2317 48.4811 52.1235 48.215 52.0375C48.1305 52.0107 48.0476 51.9817 47.963 51.9537C47.7759 51.8886 47.5905 51.8235 47.4056 51.7526C47.3194 51.72 47.232 51.6874 47.1457 51.6537C46.9418 51.5723 46.739 51.4863 46.5385 51.3979C46.4842 51.3746 46.4287 51.3525 46.3749 51.3281C46.124 51.2141 45.8781 51.0943 45.6344 50.9699C45.4608 50.8827 45.3432 50.8175 45.2255 50.7536C45.165 50.721 45.1045 50.6908 45.0452 50.6559C44.8748 50.5605 44.7051 50.4617 44.5376 50.3617C44.5107 50.3454 44.4839 50.3303 44.4564 50.3129C44.262 50.1954 44.071 50.0733 43.8823 49.9477C43.8251 49.9117 43.7713 49.871 43.7148 49.8326C43.5966 49.7523 43.4778 49.6744 43.3613 49.5907C43.0745 49.3849 42.8168 49.1872 42.5642 48.986C42.5076 48.9406 42.4522 48.8941 42.3961 48.8499C42.144 48.643 41.8959 48.4325 41.6556 48.2138C41.4064 47.9857 41.1963 47.781 40.9896 47.5729C40.9347 47.5171 40.8798 47.4624 40.826 47.4054C40.6132 47.1868 40.4048 46.9647 40.2054 46.7367C39.6553 46.2414 39.196 45.5075 38.7815 44.8912C38.3267 44.2144 37.92 43.5039 37.5581 42.7712C35.4004 38.4014 35.2503 32.8704 38.0163 28.7385L40.276 25.4267ZM29.1287 29.6157C25.761 36.3734 27.2747 44.6019 31.4883 50.568C31.6406 50.7852 31.7962 50.9991 31.9554 51.2134C32.0045 51.2782 32.0541 51.3425 32.1036 51.4054C32.2358 51.5798 32.3714 51.7531 32.5081 51.924C32.5574 51.9845 32.6056 52.0438 32.6554 52.1054C32.8386 52.3299 33.0257 52.552 33.2173 52.7695C33.4256 53.0055 33.6105 53.2079 33.7987 53.4079C33.8569 53.4695 33.9163 53.53 33.9757 53.5916C34.1236 53.7475 34.2743 53.8998 34.4272 54.051C34.486 54.1103 34.5443 54.1684 34.6042 54.2277C34.8109 54.4277 35.0198 54.6266 35.2327 54.8208C35.4949 55.0557 35.6943 55.229 35.8959 55.4011C35.9665 55.4604 36.0382 55.5197 36.1099 55.579C36.2687 55.7114 36.4288 55.8405 36.5899 55.9687C36.6674 56.0301 36.7459 56.092 36.8258 56.1535C37.0015 56.2883 37.1786 56.4212 37.3576 56.5526C37.4182 56.5955 37.4774 56.6417 37.5389 56.6851C37.7243 56.8175 37.9124 56.9466 38.1015 57.0733C38.1726 57.1223 38.2428 57.1733 38.3148 57.2209C38.5755 57.3919 38.8389 57.5606 39.1055 57.7235C39.1739 57.7644 39.2427 57.8025 39.3106 57.8421C39.5111 57.9631 39.7126 58.0817 39.9177 58.1955C40.0292 58.2598 40.1435 58.3179 40.2559 58.3794C40.4239 58.4689 40.5923 58.5608 40.7625 58.6471C40.8264 58.6796 40.8891 58.7099 40.9519 58.7413C41.1686 58.8494 41.3865 58.9541 41.6067 59.0576C41.6588 59.0808 41.7092 59.1052 41.7618 59.1285C42.0179 59.2448 42.2772 59.3564 42.5382 59.4634C42.6054 59.4913 42.6727 59.5181 42.7399 59.546C42.978 59.6413 43.2171 59.7344 43.4591 59.8228C43.8411 59.9612 44.1128 60.053 44.3867 60.1402C44.4568 60.1624 44.5268 60.1844 44.5979 60.2065C44.8786 60.2926 45.1575 60.3856 45.4449 60.4531C53.0343 62.245 61.0446 60.6355 65.5573 54.5328C65.5573 54.5328 60.1842 69.5729 41.6866 66.0714C41.3954 66.0156 41.1164 65.9097 40.8341 65.8214C40.7674 65.8016 40.7008 65.7795 40.6347 65.7597C40.3574 65.6702 40.0818 65.5783 39.809 65.4795C39.4673 65.3551 39.2197 65.2585 38.9755 65.1609C38.9116 65.1353 38.8477 65.1097 38.7845 65.083C38.5206 64.9748 38.259 64.862 37.9997 64.7445C37.9521 64.7225 37.9056 64.7004 37.8574 64.6783C37.6311 64.5736 37.407 64.4654 37.1846 64.355C37.1269 64.3247 37.0687 64.2968 37.011 64.2677C36.7695 64.1445 36.6295 64.0666 36.4883 63.9898C36.3791 63.9317 36.2682 63.8747 36.1601 63.8142C35.9601 63.7014 35.7629 63.5863 35.5669 63.4688C35.4941 63.4258 35.4207 63.384 35.3484 63.3409C35.0818 63.1781 34.818 63.0095 34.5581 62.8385C34.4847 62.7897 34.4124 62.7374 34.3396 62.6874C34.1704 62.5734 34.0007 62.4594 33.8349 62.3408C33.7189 62.2571 33.6573 62.2106 33.5935 62.1629C33.4187 62.0361 33.2456 61.907 33.0736 61.7756C32.9907 61.7105 32.9084 61.6454 32.826 61.5802C32.6703 61.457 32.5157 61.3314 32.3628 61.2046C32.2861 61.1407 32.2087 61.0779 32.1326 61.0139C31.9455 60.8534 31.7595 60.6906 31.5769 60.5266C31.5422 60.4952 31.5058 60.465 31.4705 60.4324C31.2537 60.2359 31.0504 60.0428 30.8493 59.8463C30.7882 59.7882 30.7277 59.7265 30.6666 59.6661C30.516 59.516 30.367 59.3649 30.2202 59.2114C30.1597 59.1497 30.0998 59.0869 30.041 59.0241C29.8516 58.8218 29.6645 58.6194 29.4819 58.4124C29.2624 58.1624 29.0792 57.9438 28.8994 57.724C28.849 57.6624 28.7985 57.5996 28.7487 57.5368C28.6148 57.3694 28.4832 57.2019 28.3538 57.0333C28.3 56.9623 28.2462 56.8914 28.193 56.8205C28.0479 56.6263 27.9045 56.4297 27.7656 56.2309C27.7399 56.1936 27.7119 56.1576 27.6866 56.1204C27.5125 55.8704 27.3567 55.6355 27.2044 55.3994C27.1573 55.3273 27.1125 55.2529 27.0666 55.1785C26.9562 55.004 26.8481 54.8296 26.7428 54.6528C26.6885 54.5621 26.6364 54.4714 26.5837 54.3807C26.4885 54.2156 26.3955 54.0504 26.3047 53.8841C26.2532 53.7899 26.2022 53.6981 26.1524 53.6016C26.1244 53.5504 26.0941 53.498 26.0672 53.4446C26.0196 53.355 25.9765 53.262 25.9306 53.1713C25.8589 53.0282 25.786 52.8852 25.7166 52.7398C22.7948 46.6766 22.3186 39.2526 26.1434 33.5461L29.1287 29.6157ZM49.2226 23.4C46.9668 27.6303 49.1144 32.8247 52.5716 35.5474C53.1778 36.0227 53.8317 36.4381 54.5177 36.7801C54.8788 36.9602 55.2505 37.1192 55.6277 37.2588C55.9219 37.3669 56.2573 37.4813 56.5625 37.5584C60.4258 38.5318 63.5746 37.8596 65.4483 35.0593C64.8788 35.9103 62.74 41.6923 54.8541 40.1108C54.6804 40.0771 54.5135 40.0131 54.3454 39.9584C54.2928 39.9422 54.2412 39.9236 54.1891 39.9073C54.0698 39.8654 53.9522 39.8248 53.8346 39.7794C50.981 38.6934 48.5359 36.4024 47.3428 33.4823C46.2112 30.731 46.3714 27.6375 48.0021 25.1465L49.2226 23.4Z" fill="black"/>
</svg>
