<svg width="90" height="90" viewBox="0 0 90 90" fill="none" xmlns="http://www.w3.org/2000/svg">
<path d="M59.7129 1.05469V19.8281H78.8027L59.7129 1.05469Z" fill="#2E2E2E"/>
<path d="M57.6035 1.10739H14.2383V41.7656H48.9902C58.7637 41.7656 66.7266 49.7285 66.7266 59.5019C66.7266 69.2754 58.7637 77.2383 48.9902 77.2383H14.2383V88.9453H78.6973L78.8027 21.9375H57.6035V1.10739Z" fill="#5EA4D3"/>
<path d="M64.6172 59.5195C64.6172 50.8887 57.6211 43.8926 48.9902 43.8926H11.1973V75.1465H48.9902C57.6211 75.1465 64.6172 68.1504 64.6172 59.5195ZM31.3242 63.457C31.3242 65.2676 30.7793 66.709 29.6719 67.7637C28.582 68.8359 27.1582 69.3633 25.4004 69.3633C23.5547 69.3633 22.0781 68.8887 21.0059 67.9394C19.916 66.9902 19.4062 65.6191 19.4414 63.791L19.459 63.7207H22.5C22.5 64.793 22.7637 65.584 23.2734 66.0937C23.7832 66.6035 24.5039 66.8672 25.418 66.8672C26.2441 66.8672 26.9121 66.5508 27.4219 65.9355C27.9492 65.3203 28.1953 64.4941 28.1953 63.457V50.3086H31.3242V63.457ZM46.459 67.9746C45.2285 68.9062 43.6289 69.3633 41.6426 69.3633C39.7266 69.3633 38.0742 68.8535 36.6504 67.834C35.2266 66.8144 34.541 65.3906 34.5937 63.5273L34.6113 63.457H37.6348C37.6348 64.582 38.0215 65.4258 38.7949 66.0059C39.5684 66.5859 40.5176 66.8672 41.6426 66.8672C42.75 66.8672 43.6113 66.6387 44.2266 66.1641C44.8418 65.6894 45.1582 65.0566 45.1582 64.2656C45.1582 63.4746 44.8769 62.8418 44.332 62.3496C43.7695 61.8574 42.7852 61.4004 41.3789 61.0137C39.3574 60.4512 37.793 59.7129 36.7031 58.8164C35.6133 57.9023 35.0508 56.7246 35.0508 55.2656C35.0508 53.7539 35.6484 52.5059 36.8613 51.5215C38.0742 50.5371 39.6211 50.0449 41.5019 50.0449C43.541 50.0449 45.1582 50.5898 46.3711 51.6797C47.584 52.7695 48.1816 54.1055 48.1289 55.7051L48.1113 55.7754H45.0879C45.0879 54.791 44.7539 54 44.1035 53.4199C43.4531 52.8398 42.5742 52.541 41.4844 52.541C40.4297 52.541 39.6035 52.7871 39.041 53.2969C38.4609 53.7891 38.1797 54.4395 38.1797 55.2305C38.1797 55.9512 38.4961 56.5488 39.1289 57.0234C39.7617 57.498 40.7988 57.9375 42.2578 58.3594C44.2266 58.9043 45.7383 59.6602 46.7578 60.6094C47.7949 61.5586 48.3047 62.7715 48.3047 64.248C48.2871 65.8125 47.6719 67.043 46.459 67.9746Z" fill="#2E2E2E"/>
</svg>
