<svg width="90" height="90" viewBox="0 0 90 90" fill="none" xmlns="http://www.w3.org/2000/svg">
<path d="M87.1479 45.2747C85.2043 57.6339 81.4226 61.2465 74.7254 69.5494C68.0282 76.5846 58.3944 88.331 44.7465 87.6761C32.3874 85.7325 28.7747 81.9508 20.4719 75.2536C13.4367 68.5564 1.69018 58.9226 2.34511 45.2747C4.28877 32.9156 8.07046 29.3029 14.7676 21.0001C21.4648 13.9649 31.0986 2.21838 44.7465 2.87331C57.1057 4.81697 60.7184 8.59866 69.0212 15.2958C76.0564 21.993 87.8029 31.6268 87.1479 45.2747Z" fill="#3765AF"/>
<path d="M27.5281 44.6197C26.007 44.176 24.9718 44.5563 24.5281 45.5915L21.4859 52.4366L18.507 45.5915C18.0633 44.5563 17.0281 44.176 15.507 44.6197C14.8521 44.8309 14.5352 45.169 14.5352 45.9718V53.9154H16.5422V45.9718L19.6901 52.8802C20.0281 53.7042 20.5563 54.0211 21.5492 54.0211C22.5422 54.0211 23.007 53.7042 23.3873 52.8802L26.4929 45.9718V53.9154H28.4999V45.9718C28.4999 45.2112 28.183 44.8309 27.5281 44.6197Z" fill="white"/>
<path d="M37.7535 52.6266C37.7112 52.6266 33.9506 52.6266 33.3591 52.6266C32.2394 52.6055 32.176 52.0351 32.176 51.8027V47.4506H30.1689C30.2323 47.4717 30.1689 51.8238 30.1901 51.9295C30.1901 52.9224 31.4577 53.8309 33.4647 53.8309H37.7535V54.359C37.7535 54.5492 37.9013 55.2041 36.6126 55.352H30.2535V56.7041H36.5704C37.5844 56.7041 39.7605 56.3238 39.7605 54.5703C39.7605 54.5281 39.7605 47.4083 39.7605 47.4083H37.7535V52.6266Z" fill="white"/>
<path d="M75.0421 46.8802C74.8942 46.7323 74.7252 46.6056 74.5984 46.4366C74.1548 45.845 73.6055 45.2957 73.0139 44.8732C72.528 44.5352 71.4294 44.0704 71.2604 43.4999C71.2604 43.4999 71.2604 43.4999 71.2182 43.4577C71.5562 43.4154 71.9365 43.3098 72.2956 43.2253C72.8238 43.0774 73.2886 43.1197 73.859 42.9929C74.0914 42.9295 74.3449 42.845 74.5773 42.7816C74.5773 42.7394 74.5773 42.676 74.5773 42.6338C74.3027 42.3591 74.0914 41.9788 73.8168 41.7253C73.0139 41.0281 72.1477 40.3732 71.2604 39.8239C70.7745 39.507 70.1618 39.2957 69.6759 39.0633C69.5069 38.9577 69.19 38.9154 69.0844 38.7887C68.8097 38.4507 68.6407 37.9859 68.4717 37.6056C68.028 36.7394 67.6055 35.8098 67.1829 34.9014C66.9083 34.3098 66.7393 33.6971 66.3801 33.1478C64.7956 30.5281 63.0632 28.9225 60.4012 27.3802C59.8097 27.0633 59.1548 26.9366 58.4365 26.7676C58.0562 26.7676 57.6759 26.7253 57.2956 26.7042C57.0632 26.5985 56.8097 26.2816 56.5773 26.1549C55.7111 25.6056 53.4294 24.4014 52.7745 25.9859C52.3519 26.9788 53.3872 27.9929 53.7463 28.4788C54.021 28.8169 54.3379 29.2394 54.5491 29.6197C54.6548 29.8943 54.697 30.169 54.7815 30.4436C55.0139 31.1408 55.2674 31.8591 55.5843 32.514C55.7534 32.8309 55.9224 33.169 56.1759 33.4859C56.3238 33.6549 56.5139 33.7183 56.5562 34.014C56.3449 34.3309 56.3238 34.7746 56.2181 35.1549C55.6689 36.8873 55.8801 39.0633 56.6618 40.3309C56.8942 40.7112 57.4858 41.5774 58.2886 41.2394C58.9858 40.9647 58.8379 40.0985 59.0069 39.2957C59.0491 39.1267 59.0069 38.9788 59.1125 38.8732V38.9154C59.3238 39.338 59.5351 39.7816 59.7252 40.2042C60.2111 40.9647 61.0351 41.7676 61.7322 42.2746C62.1125 42.5492 62.3872 43.0352 62.8731 43.2042V43.1619C62.8731 43.1619 62.8731 43.1619 62.8308 43.1619C62.7252 43.014 62.5984 42.9507 62.4928 42.845C62.2182 42.5704 61.9013 42.2323 61.69 41.9154C61.0351 41.0492 60.4858 40.0774 59.9576 39.1056C59.7252 38.6197 59.5139 38.1126 59.3027 37.6267C59.197 37.4577 59.197 37.183 59.0703 37.0774C58.8379 37.4154 58.4787 37.6901 58.352 38.1126C58.0773 38.7676 58.0351 39.5915 57.9294 40.4366C57.866 40.4366 57.8872 40.4366 57.866 40.4788C57.3801 40.3309 57.2111 39.8661 56.9998 39.4014C56.5562 38.3028 56.4505 36.5281 56.852 35.2816C56.9576 34.9647 57.4435 33.9295 57.2322 33.6126C57.1266 33.338 56.8097 33.169 56.6407 32.9154C56.4294 32.6408 56.2181 32.2605 56.0914 31.9225C55.7111 31.0563 55.5421 30.0845 55.1196 29.2183C54.9505 28.7957 54.5914 28.3943 54.359 28.0352C54.0843 27.6126 53.7463 27.3169 53.4928 26.8309C53.4294 26.6619 53.3238 26.3873 53.4294 26.2183C53.4717 26.0704 53.535 26.0492 53.6407 26.007C53.8519 25.838 54.4012 26.0492 54.6125 26.1549C55.2041 26.3873 55.6477 26.5985 56.1336 26.9154C56.3449 27.0633 56.5773 27.3591 56.852 27.4436C56.9576 27.4436 57.0632 27.4436 57.1689 27.4436C57.6548 27.5492 58.2041 27.4859 58.69 27.6126C59.5139 27.8873 60.2534 28.2676 60.9083 28.6901C62.9153 29.9788 64.6055 31.7957 65.7041 33.9718C65.8731 34.3098 65.9787 34.669 66.1266 35.007C66.4435 35.7676 66.8449 36.5281 67.1618 37.2887C67.4787 38.007 67.7745 38.7464 68.2604 39.3591C68.4928 39.676 69.4013 39.845 69.8449 40.014C70.1618 40.1619 70.6477 40.2887 70.9224 40.4366C71.4506 40.7535 71.9576 41.1338 72.4858 41.4718C72.6759 41.6619 73.4787 42.0422 73.521 42.3591C72.2745 42.3169 71.3449 42.4647 70.521 42.7816C70.2886 42.8873 69.9294 42.8873 69.9083 43.1619C70.0562 43.3098 70.0562 43.4788 70.1407 43.6478C70.3097 43.9647 70.6689 44.3661 70.9435 44.5774C71.2604 44.8098 71.5984 45.0633 71.9365 45.2957C72.528 45.676 73.2252 45.8873 73.7956 46.2676C74.1337 46.4788 74.4928 46.7535 74.7886 46.9859C74.9576 47.1338 75.0632 47.3028 75.2745 47.4084V47.3661C75.1689 47.2183 75.1266 47.0281 75.0421 46.8802Z" fill="white"/>
<path d="M57.1689 29.0493C57.1689 29.0493 57.1689 29.0493 57.1689 29.0916C57.1689 29.0916 57.1689 29.0916 57.2112 29.0916C57.3591 29.324 57.5492 29.5141 57.6971 29.7043C57.845 29.9367 57.9295 30.1902 58.0351 30.4226L58.0774 30.3803C58.2886 30.2324 58.3943 29.9578 58.3943 29.6198C58.2886 29.5141 58.2886 29.4085 58.2253 29.3029C58.0985 29.155 57.8872 29.0916 57.7816 28.986C57.507 28.986 57.338 29.0282 57.1689 29.0493Z" fill="white"/>
<path d="M43.0564 44.8098C41.8733 45.1901 41.324 45.7817 41.324 46.8169V47.9155C41.324 48.8239 42.317 49.6056 44.0493 49.7746C44.2184 49.7746 44.4296 49.7746 44.6409 49.7746H46.7113C46.7747 49.7746 46.8592 49.7746 46.9226 49.7746C47.5353 49.838 47.831 49.9436 48.0212 50.1971C48.1691 50.345 48.1691 50.4295 48.1691 50.5774V51.7605C48.1691 51.9084 48.0634 52.0774 47.8944 52.2464C47.7254 52.4155 47.4085 52.5211 47.0282 52.5211C46.9648 52.5211 46.8803 52.5211 46.817 52.5211H41.2817V53.9155H41.3029H47.1127C47.8099 53.9155 48.4226 53.7676 48.9719 53.5352C49.8381 53.1126 50.2606 52.6056 50.2606 51.8662V50.3873C50.2606 49.7957 49.7747 49.2887 48.8451 48.9084C48.3592 48.7394 47.7465 48.6338 47.1127 48.6338H44.6832C43.8592 48.6338 43.4789 48.4014 43.3733 47.8309C43.3733 47.7676 43.3733 47.6831 43.3733 47.6619V46.7535C43.3733 46.7112 43.3733 46.6478 43.3733 46.5845C43.4789 46.1619 43.6902 46.0563 44.4085 45.9929C44.4719 45.9929 44.5564 45.9929 44.5775 45.9929H50.324V44.6408H44.6832C43.8592 44.6408 43.4367 44.6831 43.0564 44.8098Z" fill="white"/>
<path d="M64.8379 51.5282V44.6198H62.8308L62.7886 51.5493C62.7886 52.9226 63.8238 53.6831 65.8942 53.831C66.1055 53.831 66.2745 53.8733 66.4858 53.8733H71.7463V52.5212H66.4646C65.2815 52.5212 64.8379 52.2465 64.8379 51.5282Z" fill="white"/>
<path d="M61.5844 51.6338V46.8591C61.5844 45.6549 60.7605 44.9155 59.0703 44.6831C58.8591 44.6408 58.69 44.6408 58.4788 44.6408H54.6337C54.4647 44.6408 54.2534 44.6831 54.0844 44.6831C52.3943 44.8943 51.5281 45.6549 51.5281 46.8591V51.6338C51.5281 52.7324 52.1408 53.4296 53.514 53.7887C53.9365 53.8943 54.3591 53.9366 54.6971 53.9366H56.8309L58.4577 53.831L60.0422 55.2887H62.3661L60.4013 53.4929C61.2464 53.1549 61.5844 52.6267 61.5844 51.6338ZM59.6407 46.9648V51.5281C59.6407 51.5915 59.6407 51.676 59.6407 51.7394C59.5562 52.0141 59.3872 52.2465 59.1126 52.3943L57.6548 51.0845H55.3309L56.9999 52.6056H55.1619C54.3591 52.6056 53.852 52.2887 53.7464 51.7394C53.7464 51.676 53.7041 51.5915 53.7041 51.5281V46.9648C53.7041 46.3521 54.2746 45.9718 55.183 45.9718H58.2253C59.0281 45.9718 59.5351 46.2676 59.6407 46.7957C59.6407 46.8169 59.6407 46.9014 59.6407 46.9648Z" fill="white"/>
<path d="M74.4083 53.4929L74.028 52.5633H73.6055V53.9154H73.8801V52.8802L74.2604 53.9154H74.4717L74.852 52.8802L74.8942 53.9154H75.1689V52.5633H74.7463L74.4083 53.4929Z" fill="white"/>
<path d="M72.2324 52.7747H72.655V53.9155H72.9296V52.7747H73.3099V52.5423H72.2324V52.7747Z" fill="white"/>
</svg>
