<svg width="188" height="54" viewBox="0 0 188 54" fill="none" xmlns="http://www.w3.org/2000/svg">
<path d="M29.0449 28.493C29.0449 27.951 28.7599 27.453 28.2919 27.184L15.8229 20.008C15.6119 19.884 15.3759 19.82 15.1359 19.81C15.1149 19.81 15.0249 19.81 15.0069 19.81C14.7689 19.82 14.5319 19.884 14.3189 20.008L1.84995 27.184C1.38495 27.453 1.09595 27.951 1.09595 28.493L1.12295 47.815C1.12295 48.084 1.26295 48.334 1.49895 48.465C1.72995 48.604 2.01595 48.604 2.24695 48.465L9.65695 44.222C10.1259 43.944 10.4109 43.452 10.4109 42.915V33.888C10.4109 33.35 10.6959 32.852 11.1629 32.584L14.3179 30.767C14.5529 30.631 14.8099 30.565 15.0729 30.565C15.3299 30.565 15.5939 30.631 15.8219 30.767L18.9759 32.584C19.4429 32.852 19.7289 33.35 19.7289 33.888V42.915C19.7289 43.452 20.0179 43.946 20.4839 44.222L27.8919 48.465C28.1239 48.604 28.4149 48.604 28.6449 48.465C28.8739 48.333 29.0189 48.083 29.0189 47.815L29.0449 28.493Z" fill="#333333"/>
<path d="M95.6249 1.93099C95.3919 1.80099 95.1069 1.80399 94.8759 1.93899C94.6459 2.07399 94.5039 2.32099 94.5039 2.58799V21.723C94.5039 21.911 94.4029 22.085 94.2409 22.179C94.0779 22.273 93.8769 22.273 93.7139 22.179L90.5909 20.38C90.1249 20.111 89.5519 20.112 89.0859 20.381L76.6119 27.58C76.1459 27.849 75.8589 28.346 75.8589 28.884V43.284C75.8589 43.822 76.1459 44.319 76.6119 44.589L89.0849 51.793C89.5509 52.062 90.1249 52.062 90.5919 51.793L103.067 44.589C103.533 44.319 103.82 43.822 103.82 43.284V7.38899C103.82 6.84299 103.525 6.33999 103.048 6.07399L95.6249 1.93099ZM94.4679 38.554C94.4679 38.688 94.3959 38.813 94.2799 38.88L89.9969 41.349C89.8809 41.416 89.7369 41.416 89.6209 41.349L85.3379 38.88C85.2209 38.813 85.1499 38.689 85.1499 38.554V33.609C85.1499 33.475 85.2219 33.35 85.3379 33.283L89.6209 30.809C89.7379 30.742 89.8809 30.742 89.9979 30.809L94.2809 33.283C94.3969 33.35 94.4689 33.475 94.4689 33.609L94.4679 38.554Z" fill="#333333"/>
<path d="M140.252 33.479C140.716 33.209 141.001 32.713 141.001 32.177V28.687C141.001 28.15 140.715 27.654 140.251 27.384L127.857 20.188C127.391 19.917 126.815 19.916 126.348 20.186L113.879 27.385C113.413 27.654 113.126 28.151 113.126 28.689V43.086C113.126 43.627 113.417 44.127 113.887 44.395L126.279 51.456C126.736 51.717 127.296 51.72 127.756 51.464L135.251 47.298C135.489 47.166 135.637 46.916 135.638 46.645C135.64 46.374 135.495 46.122 135.26 45.987L122.712 38.785C122.478 38.651 122.334 38.401 122.334 38.132V33.62C122.334 33.351 122.478 33.102 122.711 32.968L126.616 30.716C126.848 30.582 127.136 30.582 127.368 30.716L131.275 32.968C131.508 33.102 131.652 33.351 131.652 33.62V37.17C131.652 37.44 131.796 37.689 132.029 37.823C132.262 37.958 132.55 37.957 132.783 37.822L140.252 33.479Z" fill="#333333"/>
<path d="M51.7269 20.111C52.1929 19.842 52.7669 19.842 53.2329 20.111L65.7049 27.308C66.1709 27.577 66.4579 28.074 66.4579 28.613V43.019C66.4579 43.557 66.1709 44.054 65.7049 44.324L53.2329 51.527C52.7669 51.796 52.1919 51.796 51.7259 51.527L39.2569 44.324C38.7909 44.054 38.5039 43.557 38.5039 43.019V28.613C38.5039 28.075 38.7909 27.578 39.2569 27.309L51.7269 20.111Z" fill="#80BD01"/>
<path d="M164.468 51.732C164.038 51.732 163.611 51.62 163.235 51.402L159.308 49.079C158.722 48.751 159.008 48.635 159.201 48.567C159.983 48.296 160.142 48.233 160.976 47.759C161.063 47.71 161.178 47.729 161.268 47.781L164.285 49.572C164.394 49.633 164.549 49.633 164.649 49.572L176.41 42.784C176.519 42.721 176.59 42.596 176.59 42.466V28.894C176.59 28.761 176.52 28.637 176.407 28.57L164.651 21.788C164.543 21.725 164.398 21.725 164.289 21.788L152.536 28.572C152.422 28.637 152.35 28.765 152.35 28.894V42.466C152.35 42.596 152.422 42.719 152.535 42.78L155.757 44.641C157.505 45.515 158.575 44.486 158.575 43.452V30.052C158.575 29.863 158.727 29.713 158.917 29.713H160.408C160.594 29.713 160.749 29.862 160.749 30.052V43.452C160.749 45.785 159.479 47.123 157.267 47.123C156.587 47.123 156.052 47.123 154.558 46.387L151.474 44.612C150.712 44.172 150.241 43.348 150.241 42.466V28.894C150.241 28.012 150.713 27.189 151.474 26.75L163.235 19.954C163.979 19.533 164.968 19.533 165.707 19.954L177.467 26.75C178.229 27.19 178.702 28.012 178.702 28.894V42.466C178.702 43.348 178.228 44.168 177.467 44.612L165.707 51.402C165.33 51.62 164.904 51.732 164.468 51.732Z" fill="#80BD01"/>
<path d="M168.101 42.382C162.955 42.382 161.876 40.02 161.876 38.038C161.876 37.85 162.027 37.699 162.216 37.699H163.736C163.906 37.699 164.047 37.821 164.074 37.987C164.303 39.535 164.988 40.316 168.1 40.316C170.578 40.316 171.632 39.755 171.632 38.441C171.632 37.683 171.333 37.121 167.483 36.744C164.265 36.426 162.275 35.715 162.275 33.14C162.275 30.767 164.275 29.352 167.629 29.352C171.397 29.352 173.261 30.66 173.497 33.465C173.506 33.562 173.472 33.654 173.407 33.727C173.343 33.794 173.253 33.835 173.158 33.835H171.632C171.474 33.835 171.334 33.723 171.302 33.569C170.936 31.94 170.045 31.42 167.629 31.42C164.924 31.42 164.609 32.362 164.609 33.068C164.609 33.923 164.98 34.172 168.632 34.656C172.246 35.134 173.963 35.81 173.963 38.35C173.964 40.914 171.828 42.382 168.101 42.382Z" fill="#80BD01"/>
<path d="M126.919 32.805C127.008 32.753 127.119 32.753 127.208 32.805L129.602 34.186C129.691 34.238 129.747 34.333 129.747 34.437V37.201C129.747 37.304 129.692 37.4 129.602 37.451L127.208 38.832C127.119 38.884 127.008 38.884 126.919 38.832L124.527 37.451C124.438 37.399 124.382 37.304 124.382 37.201V34.437C124.382 34.333 124.437 34.238 124.527 34.186L126.919 32.805Z" fill="#80BD01"/>
<path d="M186.841 23.632C186.841 24.879 185.821 25.899 184.574 25.899C183.339 25.899 182.307 24.892 182.307 23.632C182.307 22.349 183.363 21.365 184.574 21.365C185.798 21.365 186.841 22.349 186.841 23.632ZM182.674 23.626C182.674 24.682 183.526 25.533 184.569 25.533C185.625 25.533 186.476 24.663 186.476 23.626C186.476 22.571 185.613 21.731 184.569 21.731C183.537 21.731 182.674 22.558 182.674 23.626ZM183.723 22.361H184.599C184.899 22.361 185.487 22.361 185.487 23.033C185.487 23.501 185.187 23.596 185.007 23.656C185.356 23.68 185.379 23.908 185.427 24.232C185.451 24.436 185.488 24.784 185.559 24.903H185.02C185.007 24.783 184.923 24.135 184.923 24.1C184.888 23.956 184.839 23.884 184.659 23.884H184.216V24.903H183.724V22.361H183.723ZM184.203 23.476H184.599C184.922 23.476 184.983 23.248 184.983 23.117C184.983 22.769 184.743 22.769 184.611 22.769H184.204V23.476H184.203Z" fill="#80BD01"/>
</svg>
