<svg width="90" height="90" viewBox="0 0 90 90" fill="none" xmlns="http://www.w3.org/2000/svg">
<path d="M59.7129 1.05469V19.8281H78.8027L59.7129 1.05469Z" fill="#2E2E2E"/>
<path d="M54.3164 59.6074C54.8086 59.08 55.0547 58.4296 55.0547 57.621C55.0547 56.8124 54.8086 56.1445 54.3164 55.6171C53.8242 55.0898 53.0859 54.8085 52.1191 54.8085H48.6914V60.3984H52.1191C53.0859 60.3984 53.8242 60.1347 54.3164 59.6074Z" fill="#2E2E2E"/>
<path d="M64.6172 59.5196C64.6172 50.8887 57.6211 43.8926 48.9902 43.8926H11.1973V75.1465H48.9902C57.6211 75.1465 64.6172 68.1504 64.6172 59.5196ZM26.3672 61.1719C25.3828 62.0684 24.0117 62.5079 22.2715 62.5079H18.8437V68.502H16.207V52.6817H22.2715C24.0117 52.6817 25.3828 53.1387 26.3672 54.0352C27.3516 54.9317 27.8437 56.127 27.8437 57.586C27.8437 59.0801 27.3516 60.2754 26.3672 61.1719ZM42.7148 68.5196H40.0781V61.7696H33.0117V68.5196H30.375V52.6993H33.0117V59.6602H40.0781V52.6993H42.7148V68.5196ZM48.6914 68.5196H46.0547V52.6993H52.1191C53.8594 52.6993 55.2305 53.1563 56.2148 54.0528C57.1992 54.9493 57.6914 56.1446 57.6914 57.6036C57.6914 59.0801 57.1992 60.2754 56.2148 61.1719C55.2305 62.0684 53.8594 62.5079 52.1191 62.5079H48.6914V68.5196Z" fill="#2E2E2E"/>
<path d="M22.2539 54.8085H18.8262V60.3984H22.2539C23.2383 60.3984 23.959 60.1347 24.4512 59.6074C24.9434 59.08 25.1894 58.4296 25.1894 57.621C25.1894 56.8124 24.9434 56.1445 24.4512 55.6171C23.9766 55.0722 23.2383 54.8085 22.2539 54.8085Z" fill="#2E2E2E"/>
<path d="M57.6035 1.10739H14.2383V41.7656H48.9902C58.7637 41.7656 66.7266 49.7285 66.7266 59.5019C66.7266 69.2754 58.7637 77.2383 48.9902 77.2383H14.2383V88.9453H78.6973L78.8027 21.9375H57.6035V1.10739Z" fill="#5EA4D3"/>
</svg>
