<svg width="90" height="90" viewBox="0 0 90 90" fill="none" xmlns="http://www.w3.org/2000/svg">
<path d="M44.925 52.47C49.0837 52.47 52.455 49.0987 52.455 44.94C52.455 40.7813 49.0837 37.41 44.925 37.41C40.7663 37.41 37.395 40.7813 37.395 44.94C37.395 49.0987 40.7663 52.47 44.925 52.47Z" fill="#00313A"/>
<path d="M44.9249 62.19C34.3499 62.19 25.1099 60.945 18.1949 58.575C13.7099 57.045 9.8999 55.005 7.1849 52.68C4.3049 50.22 2.7749 47.535 2.7749 44.94C2.7749 39.96 8.2349 35.085 17.3999 31.905C24.8999 29.295 34.6799 27.84 44.9099 27.84C54.9599 27.84 64.6049 29.25 72.0599 31.83C76.4249 33.33 80.0999 35.28 82.7099 37.44C85.5449 39.81 87.0449 42.405 87.0449 44.94C87.0449 50.115 80.9399 55.35 71.0999 58.605C64.1399 60.915 54.8399 62.19 44.9249 62.19ZM44.9249 31.44C35.2199 31.44 25.6199 32.85 18.5999 35.295C10.1699 38.235 6.3899 42.255 6.3899 44.94C6.3899 47.73 10.4549 52.125 19.3649 55.17C25.9049 57.405 34.7549 58.59 44.9249 58.59C54.4649 58.59 63.3599 57.39 69.9749 55.185C79.2299 52.11 83.4599 47.715 83.4599 44.94C83.4599 43.515 82.3799 41.835 80.4149 40.2C78.1499 38.31 74.8499 36.585 70.9049 35.22C63.8099 32.79 54.5849 31.44 44.9249 31.44Z" fill="#00313A"/>
<path d="M27.8401 82.47C26.3101 82.47 24.9601 82.1401 23.8201 81.48C19.5151 78.9901 18.0151 71.82 19.8301 62.295C21.3151 54.48 24.9451 45.3 30.0601 36.435C35.0851 27.735 41.1151 20.085 47.0701 14.91C50.5501 11.88 54.0751 9.66002 57.2551 8.49002C60.7201 7.21502 63.7201 7.21502 65.9101 8.47502C70.3951 11.055 71.8801 18.975 69.7801 29.115C68.2951 36.315 64.7551 45 59.8051 53.595C54.5251 62.745 48.8251 70.125 43.3201 74.94C39.7501 78.0601 36.0751 80.34 32.7151 81.525C30.9601 82.1551 29.3101 82.47 27.8401 82.47ZM31.6051 37.335L33.1651 38.235C28.3201 46.635 24.7351 55.65 23.3551 62.97C21.6901 71.745 23.2951 77.0251 25.6051 78.3601C26.1751 78.6901 26.9251 78.87 27.8401 78.87C30.8251 78.87 35.5201 76.98 40.9501 72.2401C46.1551 67.695 51.6001 60.615 56.6851 51.81C61.4551 43.545 64.8451 35.235 66.2551 28.41C68.2201 18.855 66.5251 13.005 64.1101 11.61C62.8801 10.905 60.8851 10.995 58.4851 11.88C55.7101 12.9 52.5751 14.895 49.4251 17.64C43.7701 22.56 37.9951 29.88 33.1651 38.25L31.6051 37.335Z" fill="#00313A"/>
<path d="M62.0099 82.515C57.9299 82.515 52.7549 80.055 47.3549 75.405C41.3249 70.215 35.1899 62.49 30.0599 53.625C25.0199 44.925 21.4199 35.88 19.9049 28.125C19.0199 23.595 18.8549 19.44 19.4249 16.095C20.0549 12.45 21.5399 9.85502 23.7449 8.58002C28.2149 5.98502 35.8199 8.65502 43.5599 15.54C49.0499 20.415 54.8099 27.825 59.7749 36.405C65.0699 45.555 68.6249 54.18 70.0349 61.35C70.9499 66 71.0999 70.32 70.4549 73.83C69.7649 77.565 68.2049 80.22 65.9549 81.525C64.8299 82.185 63.4949 82.515 62.0099 82.515ZM33.1799 51.825C38.0399 60.225 44.0699 67.83 49.7099 72.675C56.4749 78.495 61.8449 79.755 64.1699 78.405C66.5849 77.01 68.3549 71.295 66.5249 62.055C65.1749 55.275 61.7699 47.025 56.6699 38.22C51.8849 29.955 46.3799 22.86 41.1749 18.24C33.8849 11.76 27.9749 10.305 25.5599 11.7C24.3299 12.405 23.4149 14.19 22.9799 16.71C22.4849 19.62 22.6349 23.34 23.4449 27.435C24.8849 34.8 28.3349 43.455 33.1799 51.825Z" fill="#00313A"/>
</svg>
